<?xml version="1.0" standalone="no"?>
<!DOCTYPE svg PUBLIC "-//W3C//DTD SVG 20010904//EN"
 "http://www.w3.org/TR/2001/REC-SVG-20010904/DTD/svg10.dtd">
<svg version="1.0" xmlns="http://www.w3.org/2000/svg"
 width="2433.000000pt" height="2433.000000pt" viewBox="0 0 2433.000000 2433.000000"
 preserveAspectRatio="xMidYMid meet">
<metadata>
Created by potrace 1.11, written by Peter Selinger 2001-2013
</metadata>
<g transform="translate(0.000000,2433.000000) scale(0.100000,-0.100000)"
fill="#000000" stroke="none">
<path d="M0 12170 l0 -2170 390 0 390 0 0 2170 0 2170 -390 0 -390 0 0 -2170z"/>
<path d="M4950 12964 l0 -1376 -44 34 c-25 18 -82 62 -128 97 -46 36 -108 84
-138 107 -30 23 -93 72 -140 108 -80 62 -164 127 -406 313 -450 347 -799 616
-1144 883 -85 66 -213 165 -285 220 -141 109 -417 320 -609 469 -66 51 -152
117 -191 146 -38 30 -117 90 -175 134 -229 176 -289 221 -297 221 -4 0 -7
-974 -5 -2165 l2 -2165 390 0 390 0 0 1370 0 1370 73 -56 c39 -30 126 -97 192
-148 66 -50 251 -192 410 -316 160 -123 337 -260 395 -304 58 -45 132 -101
164 -126 32 -25 102 -79 155 -121 53 -41 164 -127 246 -190 83 -63 196 -149
250 -192 92 -71 173 -134 649 -500 87 -67 210 -162 274 -212 64 -49 196 -151
293 -225 97 -74 241 -183 318 -243 l141 -107 0 2175 0 2175 -390 0 -390 0 0
-1376z"/>
<path d="M8307 14333 c-2 -4 -64 -125 -137 -268 -73 -143 -188 -368 -255 -500
-312 -611 -373 -730 -525 -1030 -89 -176 -218 -428 -285 -560 -67 -132 -184
-361 -260 -510 -492 -965 -632 -1240 -682 -1333 -24 -46 -48 -94 -53 -108
l-10 -24 439 0 438 0 78 153 c43 83 119 233 170 332 174 339 433 847 735 1440
168 329 352 689 354 692 1 1 50 -93 110 -210 60 -117 155 -302 211 -412 56
-110 169 -330 250 -490 276 -542 417 -820 495 -970 43 -82 121 -237 175 -342
l97 -193 439 0 c241 0 439 2 439 5 0 3 -33 70 -74 148 -89 172 -249 485 -421
822 -70 138 -185 363 -255 500 -70 138 -201 394 -290 570 -89 176 -211 415
-270 530 -59 116 -168 329 -242 475 -75 146 -202 396 -283 555 -81 160 -197
387 -257 505 -113 222 -122 237 -131 223z"/>
<path d="M10920 12170 l0 -2170 390 0 390 0 2 1376 3 1376 95 -73 c52 -40 160
-122 240 -183 209 -159 366 -279 488 -374 59 -45 140 -108 181 -140 153 -117
180 -139 265 -205 130 -101 111 -99 203 -26 44 35 165 129 268 209 104 80 223
172 266 205 42 33 127 98 189 145 62 47 216 165 344 262 l231 178 3 -1375 2
-1375 390 0 390 0 0 2171 c0 1733 -3 2169 -12 2163 -12 -7 -177 -133 -528
-403 -30 -23 -86 -66 -125 -96 -38 -29 -104 -80 -146 -112 -41 -32 -118 -91
-170 -130 -51 -40 -220 -170 -374 -289 -154 -118 -311 -239 -350 -269 -83 -63
-283 -217 -389 -299 l-76 -58 -47 38 c-25 21 -119 93 -207 161 -259 198 -293
224 -394 303 -54 42 -155 121 -227 175 -71 54 -151 115 -176 134 -25 20 -122
94 -215 166 -93 71 -191 147 -219 168 -27 22 -81 63 -120 93 -38 29 -124 95
-191 146 -254 196 -363 278 -369 278 -3 0 -5 -976 -5 -2170z"/>
<path d="M17827 14313 c-8 -15 -99 -194 -202 -398 -103 -203 -225 -442 -270
-530 -45 -88 -156 -304 -245 -480 -89 -176 -211 -414 -270 -530 -103 -201
-201 -393 -540 -1060 -84 -165 -192 -376 -240 -470 -48 -93 -158 -308 -244
-476 -86 -169 -163 -320 -171 -335 l-15 -29 437 -3 c240 -1 440 1 443 5 4 5
80 152 170 328 89 176 200 392 245 480 45 88 162 318 260 510 98 193 210 413
250 490 40 77 148 289 240 470 92 182 169 331 170 333 1 1 35 -62 75 -140 40
-79 130 -255 200 -393 70 -137 186 -365 257 -505 244 -479 442 -865 557 -1090
64 -124 146 -285 184 -357 l67 -133 438 0 c240 0 437 3 437 6 0 4 -48 99 -106
213 -248 481 -289 561 -444 866 -89 176 -213 419 -275 540 -104 205 -210 412
-553 1085 -74 146 -202 398 -285 560 -82 162 -178 349 -212 415 -34 66 -122
238 -194 382 -73 145 -136 265 -141 268 -5 3 -16 -7 -23 -22z"/>
<path d="M20420 12165 l0 -2175 390 0 390 0 0 1000 0 1000 383 0 c428 0 511
-6 632 -48 108 -38 181 -81 263 -157 91 -84 126 -135 227 -335 48 -96 107
-211 130 -255 23 -44 120 -233 216 -420 95 -187 224 -439 285 -560 l113 -220
435 -3 c322 -2 436 1 436 9 0 7 -55 118 -121 248 -170 330 -879 1737 -879
1744 0 3 30 10 68 17 136 23 289 87 427 178 91 61 247 218 309 312 253 384
268 867 38 1259 -192 329 -514 534 -898 571 -58 5 -666 10 -1471 10 l-1373 0
0 -2175z m2905 1350 c234 -118 295 -416 124 -609 -56 -62 -161 -121 -232 -130
-23 -3 -486 -7 -1029 -10 l-988 -4 0 394 0 394 1033 -2 1032 -3 60 -30z"/>
</g>
</svg>
