<svg xmlns="http://www.w3.org/2000/svg" viewBox="0 0 583.9 104.3"><g id="Ebene_2" data-name="Ebene 2"><g id="Ebene_1-2" data-name="Ebene 1"><path d="M124.9.1a6.6,6.6,0,0,0,1.4.1h11.2V104.3C109,82.4,80.7,60.5,52.2,38.6v65.6H33.6V.6c28.5,21.9,56.8,43.8,85.2,65.7,0-.5.1-.7.1-1V.8a1.27,1.27,0,0,0-.1-.6C120.9.1,122.9.1,124.9.1Z"/><path d="M366.3.1v104H347.8V37.9c-2,1.5-3.7,2.8-5.4,4.1-9,6.9-18.1,13.9-27.1,20.9a1.34,1.34,0,0,1-2,0c-10.4-8.1-20.9-16.1-31.4-24.1-.3-.2-.6-.4-1-.7v66.1H262.4V.4a7,7,0,0,1,.9.6c16.6,12.8,33.2,25.5,49.8,38.3a1.52,1.52,0,0,0,2.3,0C332,26.5,348.5,13.8,365.1,1.1l.9-.9A.77.77,0,0,1,366.3.1Z"/><path d="M199.8.1c1.5,3.1,3,6.2,4.6,9.2,7.3,14.3,14.6,28.7,21.9,43,8.6,16.8,17.1,33.6,25.7,50.4l.7,1.4c-.5,0-.8.1-1.2.1H233a1.76,1.76,0,0,1-1.7-1c-6.4-12.5-12.7-25-19.1-37.5-4.1-8-8.1-15.9-12.2-23.9-.1-.2-.2-.3-.4-.7-.8,1.6-1.5,3-2.3,4.4-9.8,19.2-19.7,38.5-29.5,57.8a1.29,1.29,0,0,1-1.3.9H147.3a1.49,1.49,0,0,1-.6-.1l.3-.9q12.45-24.3,24.8-48.7c5.6-10.9,11.1-21.9,16.7-32.8,3.5-6.8,6.9-13.6,10.4-20.4.2-.4.3-.9.5-1.3A.76.76,0,0,0,199.8.1Z"/><path d="M18.8.1c0,.4-.1.8-.1,1.2v103H0V.1Z"/><path d="M490.3.3h65.4a28.1,28.1,0,0,1,4.8,55.8,5.76,5.76,0,0,0-1,.2c8.1,16,16.1,31.9,24.3,48H564.3a1.75,1.75,0,0,1-1.8-1.1c-6.3-12.4-12.5-24.7-19-37a17.24,17.24,0,0,0-15.2-9.6c-6.3-.3-12.6-.1-18.8-.1a1.49,1.49,0,0,0-.6.1v47.6H490.3ZM508.9,38h.7c15.3,0,30.5-.1,45.8-.1a10.13,10.13,0,0,0,5.6-1.6,9.51,9.51,0,0,0-5.1-17.5h-47Z"/><path d="M428.4,41.1c-1.9,3.8-3.8,7.4-5.6,11-8.7,17-17.4,34.1-26.1,51.1-.3.6-.5,1-1.3,1H376.1a1.49,1.49,0,0,1-.6-.1Q402,52.2,428.5.1c17.7,34.8,35.3,69.3,53,104-.5,0-.9.1-1.2.1H461.8a1.47,1.47,0,0,1-1.6-1c-8.4-16.4-16.7-32.8-25.1-49.2-2.1-4-4.1-8-6.2-12.1A2.77,2.77,0,0,1,428.4,41.1Z"/></g></g></svg>